<svg width="32" height="32" viewBox="0 0 32 32" fill="none" xmlns="http://www.w3.org/2000/svg">
<path fill-rule="evenodd" clip-rule="evenodd" d="M11.715 21.7687L17.5004 15.9996L11.715 10.2304C11.4593 9.97592 11.3333 9.6402 11.3333 9.30447C11.3333 8.97051 11.4593 8.63479 11.715 8.38034C12.2265 7.87322 13.0611 7.87322 13.5707 8.38034L20.283 15.0737C20.5387 15.3299 20.6666 15.6638 20.6666 15.9996C20.6666 16.3353 20.5387 16.671 20.283 16.9237L13.5707 23.617C13.0611 24.1277 12.2265 24.1277 11.715 23.617C11.4593 23.3643 11.3333 23.0286 11.3333 22.6929C11.3333 22.3589 11.4593 22.0232 11.715 21.7687Z" fill="#1574F5"/>
</svg>
